<svg xmlns="http://www.w3.org/2000/svg" height="100%" viewBox="0 96 960 960" width="100%" fill="#fff"><path d="M480.132 1001q-79.132 0-148.821-29.804-69.69-29.804-121.7-81.822Q157.6 837.356 127.8 767.661 98 697.965 98 619.004q0-79.381 30.017-148.946 30.016-69.564 81.746-121.295 51.731-51.73 121.793-81.746Q401.618 237 481 237h22l-72-71 47-48 163 162-163 164-47-47 69-68h-19q-121.746 0-206.873 84.189T189 618.689Q189 740 273.798 824.5T480 909q121.404 0 206.202-84.134T771 619h91q0 81-29.694 149.943-29.694 68.942-81.525 120.4-51.83 51.457-121.674 81.557-69.844 30.1-148.975 30.1ZM377 755v-53h125v-56H377V489h181v52H434v57h124v157H377Z"/></svg>