<svg xmlns="http://www.w3.org/2000/svg" height="100%" viewBox="0 96 960 960" width="100%" fill="#fff"><path d="M480.107 1001q-79.102 0-149.08-30.1-69.978-30.1-121.808-81.557-51.831-51.458-81.525-120.539Q98 699.723 98 619h91q0 121.986 84.798 205.993Q358.596 909 480 909t206.202-84.559Q771 739.882 771 618.821q0-121.807-82.627-205.814Q605.746 329 484 329h-23l68 67-49 48-163-164 163-162 48 48-73 71h24q79.382 0 149.444 30.017 70.062 30.016 121.793 81.746 51.73 51.731 81.746 121.432Q862 539.896 862 618.865q0 78.968-29.796 148.696t-81.8 121.767q-52.003 52.039-121.68 81.855Q559.047 1001 480.107 1001ZM377 755v-53h125v-56H377V489h181v52H434v57h124v157H377Z"/></svg>